<?xml version="1.0" encoding="utf-8"?>
<!-- Generator: Adobe Illustrator 24.0.1, SVG Export Plug-In . SVG Version: 6.00 Build 0)  -->
<svg version="1.1" id="Layer_1" xmlns="http://www.w3.org/2000/svg" xmlns:xlink="http://www.w3.org/1999/xlink" x="0px" y="0px"
	 viewBox="0 0 300 300" style="enable-background:new 0 0 300 300;" xml:space="preserve">
<style type="text/css">
	.st0{fill:#929497;}
	.st1{fill:#F48120;}
	.st2{fill:#404041;}
</style>
<path class="st0" d="M206.43,75.03L206.43,75.03c0.14,15.96,0.3,33.6,0.5,50.55c1.46,0.98,2.85,1.94,4.12,2.9
	c0.22-17.62,0.39-36.15,0.52-52.87c-0.22-0.02-0.43-0.05-0.64-0.07C209.37,75.39,207.87,75.22,206.43,75.03 M209.01,12.19
	L209.01,12.19c-3.56,0-6.46,2.89-6.46,6.46c0,2.52,1.44,4.69,3.54,5.76c0.05,7.51,0.13,21.46,0.25,38.37
	c0.57,0.09,1.13,0.18,1.72,0.28c1.13,0.18,2.33,0.36,3.61,0.57c0.12-17.29,0.2-31.59,0.25-39.23c2.1-1.07,3.54-3.24,3.54-5.76
	C215.46,15.08,212.57,12.19,209.01,12.19z M209.01,202.73L209.01,202.73c0.35,0,0.66-5.26,0.95-13.99c-0.66-0.31-1.31-0.65-1.92-1
	C208.32,197.08,208.64,202.73,209.01,202.73z M207.09,138.36c0.2,16.08,0.45,30.93,0.74,42.3c0.68,0.72,1.45,1.43,2.3,2.13
	c0.29-10.78,0.54-25.07,0.75-40.76C209.95,140.93,208.69,139.7,207.09,138.36z"/>
<path class="st1" d="M115.51,133.62c-7.02-2.79-16.95-4.09-31.8-2.84c-11.18,0.94-21.26-3.02-29.3-9.23
	c-9.63-7.43-16.34-18.18-18.46-27.52l-0.91-4.02l45.65,0.38c5.27,0.04,8.88-2.78,10.78-6.71c1-2.06,1.55-4.41,1.67-6.83
	c0.12-2.47-0.23-4.99-1.03-7.36c-1.78-5.21-5.88-9.56-12.38-10.41l-42.86-0.31c-8.71-0.06-17.04-3.85-23.48-10.4
	C7.32,42.18,2.92,33.53,1.51,23.24L1,19.53c25.97,0.03,51.95,0.1,77.92,0.1c8.51,0.42,16.26,2.66,23.1,6.23
	c10.25,5.36,18.39,13.69,23.83,23.29c5.45,9.61,8.21,20.52,7.69,31.02c-0.28,5.72-1.53,11.32-3.85,16.54
	c9.71,7.73,16.65,15.72,21.32,23.68c6.51,11.09,8.62,22.1,7.65,32.24c-0.96,10.15-5,19.4-10.78,27
	c-6.58,8.65-20.64,19.01-31.48,21.06c8.92-6.37,15.19-13.41,18.06-27.83c1.69-8.49,1.48-18.77-4.33-27.23
	c-0.06-0.09-0.21-0.29-0.44-0.61C126.38,140.44,122.26,136.3,115.51,133.62 M83.18,124.25c15.92-1.34,26.82,0.15,34.74,3.3
	c8.2,3.26,13.14,8.19,17.08,13.61c0.09,0.13,0.27,0.38,0.52,0.74c7.03,10.23,7.35,22.31,5.39,32.2c-0.36,1.82-0.81,3.57-1.32,5.24
	c1.08-1.17,2.12-2.41,3.1-3.69c5.08-6.68,8.63-14.78,9.48-23.64c0.84-8.86-1.03-18.52-6.78-28.32
	c-4.59-7.81-11.64-15.72-21.76-23.42l-2.19-1.67l1.28-2.45c2.62-5.02,4.02-10.58,4.3-16.3c0.45-9.27-2-18.93-6.85-27.48
	c-4.85-8.56-12.08-15.98-21.17-20.72c-6.01-3.14-12.86-5.12-20.38-5.49L8.67,26.08c1.63,7.18,4.99,13.23,9.39,17.69
	c5.23,5.32,11.92,8.4,18.84,8.45l43.17,0.32l0.38,0.01c9.41,1.18,15.33,7.4,17.87,14.83c1.07,3.12,1.52,6.47,1.37,9.74
	c-0.15,3.31-0.93,6.55-2.31,9.4c-2.95,6.09-8.55,10.47-16.73,10.4l-37.09-0.31c2.59,6.95,7.82,14.32,14.86,19.76
	C65.26,121.66,73.79,125.04,83.18,124.25z M218.32,66.9L218.32,66.9c-11.48-2.19-18.34-2.62-22.63-4.48
	c-6.08-2.64-0.66-6.97,8.52-9.58c-0.01-3.33-0.04-6.49-0.06-9.46c-12.92,3.22-33.96,15.84-15,25.32c3.71,1.86,10.16,3.62,21.98,4.8
	c14.26,1.42,21.18,9.96,11.98,17.56c-1.56,1.29-5.29,2.85-9.65,4.58c-0.03,2.52-0.06,5.07-0.07,7.62
	c5.25-1.91,10.69-3.94,14.78-6.77C240.92,87.65,238.1,70.65,218.32,66.9 M201.7,170.07L201.7,170.07c0.29-3.91,1.75-6.6,3.69-8.64
	c-0.04-1.91-0.06-3.88-0.1-5.88c-3.96,3.37-7.1,7.42-7.35,12.09c-0.65,11.94,9.35,18.49,17.09,20.87
	C205.41,183.21,201.18,177.15,201.7,170.07z M205.12,126.85L205.12,126.85c-9.95-6.42-10.84-11.81-7.67-15.57
	c1.56-1.83,4.13-3.33,7.21-4.68c-0.02-2.48-0.04-4.97-0.07-7.44c-4.75,1.99-9.17,4.09-11.56,6.24c-9.97,8.92-1.77,19.6,6.6,25.05
	c14.63,9.52,17.92,15.03,13.19,19.5c-0.02,2.13-0.06,4.23-0.1,6.28c0.06-0.03,0.1-0.06,0.16-0.09
	C219.67,151.99,229.68,142.71,205.12,126.85z M229.17,49.5L229.17,49.5c-0.95,0-1.73-0.77-1.73-1.72c0-0.96,0.77-1.73,1.73-1.73
	c0.96,0,1.73,0.77,1.73,1.73C230.9,48.73,230.13,49.5,229.17,49.5z M234.13,44.2c-4.85-3.12-13.19-3.13-20.26-2.4
	c-0.02,2.86-0.05,5.94-0.05,9.18c2.75-0.3,5.6-0.42,8.4-0.3c0,4.89,6.38,6.16,11.86,5.89C241.78,56.21,242.15,49.33,234.13,44.2z"/>
<path class="st2" d="M219.35,90.97l4.97-9.8c0.23,0.32,0.42,0.66,0.57,0.99c0.48,1.08,0.52,2.25,0.05,3.46
	c-0.48,1.25-1.5,2.56-3.11,3.89C221.32,89.94,220.46,90.43,219.35,90.97 M204.85,117.62l-3.55-7l0.26-0.16
	c0.93-0.59,2.02-1.16,3.2-1.7L204.85,117.62z M220.81,102.57l-7.64,15.05l0.14-12.2l0.77-0.28
	C216.31,104.32,218.59,103.49,220.81,102.57z M212.17,181.51l76.47-155.26c-8.36-0.13-15.54,0.3-21.39,1.93
	c-6.48,1.81-11.32,5.17-14.32,11.08L235.1,74.39c-0.87-1.27-1.94-2.47-3.22-3.57c-0.52-0.45-1.07-0.88-1.66-1.29l5.66-11.16
	c1.56-0.28,2.83-0.84,3.8-1.6c1.2-0.94,1.95-2.17,2.21-3.58c0.24-1.32,0.05-2.76-0.59-4.22c-0.1-0.22-0.2-0.43-0.32-0.65l6.1-12.02
	c3.93-7.75,10.15-12.13,18.42-14.44c7.76-2.17,17.28-2.44,28.44-2.02l5.05,0.19l-82.3,167.08l-0.72-0.36
	c-1.43-0.79-2.72-1.59-3.89-2.41l0.04-1.52L212.17,181.51z M209.01,200.73c0.43,0,0.3-0.1-0.03-0.28
	C208.7,200.63,208.61,200.73,209.01,200.73z M211.93,189.54c0.85,0.34,1.69,0.63,2.5,0.88l0.55,0.18l-3.38,6.86
	C211.71,195.39,211.82,192.72,211.93,189.54z M165.08,39.26c-3-5.91-7.84-9.27-14.32-11.08c-5.84-1.63-13.03-2.06-21.39-1.93
	l67.49,137.01c-0.53,1.36-0.85,2.79-0.93,4.28c-0.31,5.73,1.59,10.34,4.54,13.94c1.6,1.95,3.5,3.6,5.53,4.96l0.04,1.37
	c0.12,3.94,0.24,7.21,0.37,9.67L119.02,20.03l5.05-0.19c11.16-0.41,20.68-0.14,28.44,2.02c8.27,2.31,14.49,6.68,18.42,14.44
	l9.83,19.37c-0.21,0.39-0.4,0.79-0.55,1.19c-1,2.56-0.89,5.21,0.79,7.8c1.32,2.04,3.66,4.01,7.27,5.82l0.02,0.01l13.95,27.5
	c-2.02,0.87-3.97,1.79-5.91,2.82L165.08,39.26z M8.76,266.01v-54.45h12.03v21.07c1.51-1.24,3.16-2.16,4.94-2.75
	c1.78-0.59,3.75-0.89,5.92-0.89c5.56,0,9.97,1.8,13.21,5.41c3.24,3.61,4.86,8.5,4.86,14.69c0,6.24-2.03,11.11-6.08,14.62
	c-4.05,3.51-9.68,5.27-16.89,5.27c-2.67,0-5.5-0.24-8.47-0.73C15.31,267.75,12.14,267.01,8.76,266.01z M20.79,257.22
	c1.03,0.84,2.09,1.46,3.18,1.86c1.09,0.4,2.23,0.61,3.42,0.61c2.94,0,5.27-0.95,6.99-2.86c1.71-1.9,2.57-4.49,2.57-7.76
	c0-3.29-0.85-5.89-2.55-7.78c-1.7-1.89-4.04-2.84-7.01-2.84c-1.13,0-2.26,0.22-3.36,0.65c-1.11,0.43-2.19,1.07-3.24,1.9V257.22z
	 M54.05,249.08c0-5.92,1.95-10.73,5.85-14.44s8.97-5.57,15.21-5.57c6.27,0,11.36,1.86,15.29,5.59c3.93,3.73,5.89,8.53,5.89,14.42
	c0,5.86-1.96,10.64-5.87,14.34c-3.92,3.7-9.02,5.55-15.31,5.55c-6.24,0-11.31-1.84-15.21-5.53S54.05,254.96,54.05,249.08z
	 M66.49,249.08c0,3.27,0.79,5.88,2.37,7.84c1.58,1.96,3.67,2.94,6.26,2.94c2.62,0,4.71-0.98,6.28-2.94
	c1.57-1.96,2.35-4.57,2.35-7.84c0-3.27-0.79-5.89-2.37-7.88c-1.58-1.98-3.67-2.98-6.26-2.98c-2.57,0-4.65,0.99-6.24,2.98
	C67.29,243.18,66.49,245.81,66.49,249.08z M129.73,265.08c-1.59,1.35-3.3,2.35-5.1,3c-1.81,0.65-3.81,0.97-6,0.97
	c-5.4,0-9.77-1.84-13.11-5.51c-3.34-3.67-5-8.49-5-14.46s1.67-10.81,5.02-14.52c3.35-3.71,7.71-5.57,13.09-5.57
	c2.11,0,4.03,0.3,5.77,0.91c1.74,0.61,3.36,1.52,4.84,2.73v-21.07h12.11v56.68h-11.63V265.08z M129.24,257.3v-16.45
	c-1.05-0.78-2.13-1.38-3.24-1.78s-2.24-0.61-3.4-0.61c-2.94,0-5.27,0.95-6.97,2.86c-1.7,1.9-2.55,4.49-2.55,7.76
	c0,3.19,0.85,5.75,2.55,7.7c1.7,1.94,3.94,2.92,6.72,2.92c1.19,0,2.34-0.2,3.46-0.59C126.94,258.71,128.08,258.11,129.24,257.3z
	 M170.89,264.67c-1.81,1.46-3.69,2.54-5.65,3.24c-1.96,0.7-4.06,1.05-6.3,1.05c-3.7,0-6.5-0.9-8.39-2.69c-1.89-1.8-2.84-4.46-2.84-8
	c0-3.08,1.4-5.61,4.19-7.6c2.8-1.99,8.92-4.34,18.37-7.07c0.03-0.14,0.05-0.28,0.06-0.45c0.01-0.16,0.02-0.38,0.02-0.65
	c0-1.84-0.61-3.19-1.84-4.07c-1.23-0.88-3.13-1.32-5.69-1.32c-2.16,0-4.38,0.53-6.64,1.58s-4.48,2.58-6.64,4.58l0.16-9.56
	c2.32-1.57,4.88-2.73,7.68-3.5c2.79-0.77,5.93-1.15,9.42-1.15c5.54,0,9.55,1.07,12.03,3.2c2.48,2.13,3.73,5.55,3.73,10.25v15.27
	c0,0.89,0.12,1.51,0.37,1.86c0.24,0.35,0.65,0.53,1.21,0.53c0.51,0,1.05-0.07,1.6-0.2c0.55-0.13,1.29-0.39,2.21-0.77v6.72
	c-2.19,1.05-4.13,1.82-5.81,2.31c-1.69,0.49-3.29,0.73-4.8,0.73c-1.92,0-3.42-0.36-4.52-1.07
	C171.72,267.18,171.08,266.11,170.89,264.67z M170.28,259.04v-9.4c-4.13,1.46-6.89,2.73-8.28,3.83c-1.39,1.09-2.09,2.4-2.09,3.91
	c0,1.24,0.38,2.23,1.13,2.96c0.76,0.73,1.8,1.09,3.12,1.09c0.89,0,1.85-0.2,2.88-0.61C168.07,260.42,169.15,259.83,170.28,259.04z
	 M205.42,268.97l-18.03-38.16h8.3l11.55,24.83l10.78-24.83h8.14l-17.26,38.16H205.42z M262.99,264.27
	c-2.48,1.59-5.04,2.79-7.68,3.58c-2.63,0.8-5.35,1.2-8.16,1.2c-5.92,0-10.63-1.83-14.16-5.49c-3.52-3.66-5.29-8.54-5.29-14.65
	c0-5.59,1.69-10.13,5.08-13.61c3.39-3.48,7.81-5.23,13.27-5.23c5.4,0,9.68,1.77,12.84,5.31c3.16,3.54,4.74,8.32,4.74,14.34v1.09
	H235.6c0.22,3.54,1.38,6.3,3.48,8.28c2.11,1.99,4.93,2.98,8.47,2.98c2.38,0,4.85-0.44,7.43-1.32c2.58-0.88,5.25-2.21,8-3.99V264.27z
	 M235.6,245.51h19.81c-0.24-2.73-1.23-4.92-2.96-6.56s-3.89-2.47-6.48-2.47c-2.86,0-5.17,0.76-6.93,2.29
	C237.29,240.29,236.14,242.54,235.6,245.51z M291.26,267.06c-1.16,0.65-2.41,1.13-3.75,1.44c-1.34,0.31-2.77,0.47-4.31,0.47
	c-4.21,0-7.18-1-8.89-3c-1.71-2-2.57-5.64-2.57-10.94v-17.74h-6.36v-0.73l13.09-14.46h0.85v8.71h11.71v6.48h-11.71v17.18
	c0,3.11,0.38,5.11,1.15,6.02s2.21,1.36,4.31,1.36c1.13,0,2.24-0.15,3.32-0.45c1.08-0.3,2.13-0.76,3.16-1.38V267.06z"/>
</svg>
