<?xml version="1.0" encoding="utf-8"?>
<!-- Generator: Adobe Illustrator 24.0.1, SVG Export Plug-In . SVG Version: 6.00 Build 0)  -->
<svg version="1.1" id="Layer_1" xmlns="http://www.w3.org/2000/svg" xmlns:xlink="http://www.w3.org/1999/xlink" x="0px" y="0px"
	 viewBox="0 0 1000 220" style="enable-background:new 0 0 1000 220;" xml:space="preserve">
<style type="text/css">
	.st0{fill:#F48120;}
	.st1{fill:#929497;}
	.st2{fill:#FFFFFF;}
</style>
<g>
	<path class="st0" d="M125.01,136.16c-7.02-2.79-16.95-4.09-31.8-2.84c-11.18,0.94-21.26-3.02-29.3-9.23
		c-9.63-7.43-16.34-18.18-18.46-27.52l-0.91-4.02l45.65,0.38c5.27,0.04,8.88-2.78,10.78-6.71c1-2.06,1.55-4.41,1.67-6.83
		c0.12-2.47-0.23-4.99-1.03-7.36c-1.78-5.21-5.88-9.56-12.38-10.41l-42.86-0.31c-8.71-0.06-17.04-3.85-23.48-10.4
		c-6.07-6.18-10.47-14.83-11.88-25.12l-0.51-3.71c25.97,0.03,51.95,0.1,77.92,0.1c8.51,0.42,16.26,2.66,23.1,6.23
		c10.25,5.36,18.39,13.69,23.83,23.29c5.45,9.61,8.21,20.52,7.69,31.02c-0.28,5.72-1.53,11.32-3.85,16.54
		c9.71,7.73,16.65,15.72,21.32,23.68c6.51,11.09,8.62,22.1,7.65,32.24c-0.96,10.15-5,19.4-10.78,27
		c-6.58,8.65-20.64,19.01-31.48,21.06c8.92-6.37,15.19-13.41,18.06-27.83c1.69-8.49,1.48-18.77-4.33-27.23
		c-0.06-0.09-0.21-0.29-0.44-0.61C135.88,142.98,131.76,138.84,125.01,136.16 M92.68,126.78c15.92-1.34,26.82,0.15,34.74,3.3
		c8.2,3.26,13.14,8.19,17.08,13.61c0.09,0.13,0.27,0.38,0.52,0.74c7.03,10.23,7.35,22.31,5.39,32.2c-0.36,1.82-0.81,3.57-1.32,5.24
		c1.08-1.17,2.12-2.41,3.1-3.69c5.08-6.68,8.63-14.78,9.48-23.64c0.84-8.86-1.03-18.52-6.78-28.32
		c-4.59-7.81-11.64-15.72-21.76-23.42l-2.19-1.67l1.28-2.45c2.62-5.02,4.02-10.58,4.3-16.3c0.45-9.27-2-18.93-6.85-27.48
		c-4.85-8.56-12.08-15.98-21.17-20.72c-6.01-3.14-12.86-5.12-20.38-5.49l-69.95-0.09c1.63,7.18,4.99,13.23,9.39,17.69
		c5.23,5.32,11.92,8.4,18.84,8.45l43.17,0.32l0.38,0.01c9.41,1.18,15.33,7.4,17.87,14.83c1.07,3.12,1.52,6.47,1.37,9.74
		c-0.15,3.31-0.93,6.55-2.31,9.4c-2.95,6.09-8.55,10.47-16.73,10.4l-37.09-0.31c2.59,6.95,7.82,14.32,14.86,19.76
		C74.76,124.19,83.29,127.57,92.68,126.78z"/>
	<path class="st1" d="M215.93,77.57L215.93,77.57c0.14,15.96,0.3,33.6,0.5,50.55c1.46,0.98,2.85,1.94,4.12,2.9
		c0.22-17.62,0.39-36.15,0.52-52.87c-0.22-0.02-0.43-0.05-0.64-0.07C218.87,77.92,217.37,77.75,215.93,77.57 M218.51,14.73
		L218.51,14.73c-3.56,0-6.46,2.89-6.46,6.46c0,2.52,1.44,4.69,3.54,5.76c0.05,7.51,0.13,21.46,0.25,38.37
		c0.57,0.09,1.13,0.18,1.72,0.28c1.13,0.18,2.33,0.36,3.61,0.57c0.12-17.29,0.2-31.59,0.25-39.23c2.1-1.07,3.54-3.24,3.54-5.76
		C224.96,17.62,222.07,14.73,218.51,14.73z M218.51,205.27L218.51,205.27c0.35,0,0.66-5.26,0.95-13.99c-0.66-0.31-1.31-0.65-1.92-1
		C217.82,199.61,218.14,205.27,218.51,205.27z M216.59,140.9c0.2,16.08,0.45,30.93,0.74,42.3c0.68,0.72,1.45,1.43,2.3,2.13
		c0.29-10.78,0.54-25.07,0.75-40.76C219.45,143.46,218.19,142.23,216.59,140.9z"/>
	<path class="st0" d="M227.82,69.43L227.82,69.43c-11.48-2.19-18.34-2.62-22.63-4.48c-6.08-2.64-0.66-6.97,8.52-9.58
		c-0.01-3.33-0.04-6.49-0.06-9.46c-12.92,3.22-33.96,15.84-15,25.32c3.71,1.86,10.16,3.62,21.98,4.8
		c14.26,1.42,21.18,9.96,11.98,17.56c-1.56,1.29-5.29,2.85-9.65,4.58c-0.03,2.52-0.06,5.07-0.07,7.62
		c5.25-1.91,10.69-3.94,14.78-6.77C250.42,90.19,247.6,73.19,227.82,69.43 M211.2,172.6L211.2,172.6c0.29-3.91,1.75-6.6,3.69-8.64
		c-0.04-1.91-0.06-3.88-0.1-5.88c-3.96,3.37-7.1,7.42-7.35,12.09c-0.65,11.94,9.35,18.49,17.09,20.87
		C214.91,185.75,210.68,179.69,211.2,172.6z M214.62,129.38L214.62,129.38c-9.95-6.42-10.84-11.81-7.67-15.57
		c1.56-1.83,4.13-3.33,7.21-4.68c-0.02-2.48-0.04-4.97-0.07-7.44c-4.75,1.99-9.17,4.09-11.56,6.24c-9.97,8.92-1.77,19.6,6.6,25.05
		c14.63,9.52,17.92,15.03,13.19,19.5c-0.02,2.13-0.06,4.23-0.1,6.28c0.06-0.03,0.1-0.06,0.16-0.09
		C229.17,154.52,239.18,145.25,214.62,129.38z M238.67,52.04L238.67,52.04c-0.95,0-1.73-0.77-1.73-1.72c0-0.96,0.77-1.73,1.73-1.73
		c0.96,0,1.73,0.77,1.73,1.73C240.4,51.26,239.63,52.04,238.67,52.04z M243.63,46.73c-4.85-3.12-13.19-3.13-20.26-2.4
		c-0.02,2.86-0.05,5.94-0.05,9.18c2.75-0.3,5.6-0.42,8.4-0.3c0,4.89,6.38,6.16,11.86,5.89C251.28,58.74,251.65,51.86,243.63,46.73z"
		/>
	<path class="st2" d="M228.85,93.5l4.97-9.8c0.23,0.32,0.42,0.66,0.57,0.99c0.48,1.08,0.52,2.25,0.05,3.46
		c-0.48,1.25-1.5,2.56-3.11,3.89C230.82,92.48,229.96,92.97,228.85,93.5 M214.35,120.16l-3.55-7l0.26-0.16
		c0.93-0.59,2.02-1.16,3.2-1.7L214.35,120.16z M230.31,105.1l-7.64,15.05l0.14-12.2l0.77-0.28
		C225.81,106.86,228.09,106.02,230.31,105.1z M221.67,184.04l76.47-155.26c-8.36-0.13-15.54,0.3-21.39,1.93
		c-6.48,1.81-11.32,5.17-14.32,11.08L244.6,76.93c-0.87-1.27-1.94-2.47-3.22-3.57c-0.52-0.45-1.07-0.88-1.66-1.29l5.66-11.16
		c1.56-0.28,2.83-0.84,3.8-1.6c1.2-0.94,1.95-2.17,2.21-3.58c0.24-1.32,0.05-2.76-0.59-4.22c-0.1-0.22-0.2-0.43-0.32-0.65l6.1-12.02
		c3.93-7.75,10.15-12.13,18.42-14.44c7.76-2.17,17.28-2.44,28.44-2.02l5.05,0.19l-82.3,167.08l-0.72-0.36
		c-1.43-0.79-2.72-1.59-3.89-2.41l0.04-1.52L221.67,184.04z M218.51,203.26c0.43,0,0.3-0.1-0.03-0.28
		C218.2,203.17,218.11,203.26,218.51,203.26z M221.43,192.08c0.85,0.34,1.69,0.63,2.5,0.88l0.55,0.18l-3.38,6.86
		C221.21,197.92,221.32,195.25,221.43,192.08z M174.58,41.79c-3-5.91-7.84-9.27-14.32-11.08c-5.84-1.63-13.03-2.06-21.39-1.93
		l67.49,137.01c-0.53,1.36-0.85,2.79-0.93,4.28c-0.31,5.73,1.59,10.34,4.54,13.94c1.6,1.95,3.5,3.6,5.53,4.96l0.04,1.37
		c0.12,3.94,0.24,7.21,0.37,9.67L128.52,22.57l5.05-0.19c11.16-0.41,20.68-0.14,28.44,2.02c8.27,2.31,14.49,6.68,18.42,14.44
		l9.83,19.37c-0.21,0.39-0.4,0.79-0.55,1.19c-1,2.56-0.89,5.21,0.79,7.8c1.32,2.04,3.66,4.01,7.27,5.82l0.02,0.01l13.95,27.5
		c-2.02,0.87-3.97,1.79-5.91,2.82L174.58,41.79z M345.52,164.44V40.32h27.43v48.02c3.45-2.83,7.2-4.92,11.27-6.28
		c4.06-1.35,8.56-2.03,13.48-2.03c12.68,0,22.72,4.11,30.11,12.33c7.39,8.22,11.08,19.38,11.08,33.48
		c0,14.22-4.62,25.34-13.85,33.34c-9.24,8-22.07,12.01-38.51,12.01c-6.1,0-12.53-0.55-19.3-1.66
		C360.45,168.41,353.22,166.71,345.52,164.44z M372.95,144.4c2.34,1.91,4.76,3.33,7.25,4.25c2.49,0.92,5.09,1.38,7.8,1.38
		c6.71,0,12.02-2.17,15.93-6.51c3.91-4.34,5.86-10.23,5.86-17.68c0-7.51-1.94-13.42-5.82-17.73c-3.88-4.31-9.2-6.46-15.98-6.46
		c-2.59,0-5.14,0.49-7.66,1.48c-2.53,0.99-4.99,2.43-7.39,4.34V144.4z M448.77,125.83c0-13.48,4.45-24.46,13.34-32.92
		c8.9-8.47,20.46-12.7,34.68-12.7c14.28,0,25.9,4.25,34.86,12.74c8.96,8.49,13.44,19.45,13.44,32.88c0,13.36-4.46,24.26-13.39,32.69
		c-8.93,8.44-20.56,12.65-34.91,12.65c-14.22,0-25.78-4.2-34.68-12.61C453.22,150.17,448.77,139.26,448.77,125.83z M477.12,125.83
		c0,7.45,1.8,13.41,5.4,17.87c3.6,4.47,8.36,6.7,14.27,6.7c5.97,0,10.74-2.23,14.31-6.7c3.57-4.46,5.36-10.42,5.36-17.87
		c0-7.45-1.8-13.44-5.4-17.96c-3.6-4.52-8.36-6.79-14.27-6.79c-5.85,0-10.59,2.26-14.22,6.79
		C478.94,112.4,477.12,118.39,477.12,125.83z M621.28,162.31c-3.63,3.08-7.51,5.36-11.64,6.83c-4.13,1.48-8.68,2.22-13.67,2.22
		c-12.31,0-22.27-4.19-29.87-12.56c-7.6-8.37-11.41-19.36-11.41-32.97s3.82-24.64,11.45-33.11c7.63-8.46,17.58-12.7,29.83-12.7
		c4.8,0,9.19,0.69,13.16,2.08c3.97,1.38,7.65,3.46,11.04,6.23V40.32h27.61v129.2h-26.5V162.31z M620.17,144.58v-37.49
		c-2.4-1.79-4.86-3.14-7.39-4.06c-2.52-0.92-5.11-1.38-7.76-1.38c-6.71,0-12.01,2.17-15.88,6.51c-3.88,4.34-5.82,10.24-5.82,17.68
		c0,7.27,1.94,13.11,5.82,17.55c3.88,4.43,8.99,6.65,15.33,6.65c2.71,0,5.34-0.45,7.9-1.34
		C614.92,147.8,617.52,146.43,620.17,144.58z M715.1,161.39c-4.12,3.33-8.42,5.79-12.88,7.39c-4.47,1.6-9.25,2.4-14.36,2.4
		c-8.43,0-14.81-2.05-19.12-6.14c-4.31-4.09-6.46-10.17-6.46-18.24c0-7.02,3.19-12.79,9.56-17.31c6.37-4.53,20.33-9.9,41.88-16.11
		c0.06-0.31,0.11-0.65,0.14-1.02c0.03-0.37,0.04-0.86,0.04-1.48c0-4.19-1.4-7.28-4.2-9.28c-2.8-2-7.13-3-12.98-3
		c-4.93,0-9.97,1.2-15.14,3.6c-5.17,2.4-10.22,5.88-15.15,10.44l0.37-21.8c5.29-3.57,11.13-6.23,17.5-7.99
		c6.37-1.75,13.53-2.63,21.47-2.63c12.62,0,21.76,2.43,27.43,7.29c5.66,4.86,8.49,12.65,8.49,23.36v34.82
		c0,2.03,0.28,3.45,0.83,4.25c0.55,0.8,1.48,1.2,2.77,1.2c1.17,0,2.39-0.15,3.65-0.46c1.26-0.31,2.94-0.89,5.03-1.75v15.33
		c-4.99,2.4-9.41,4.16-13.25,5.26c-3.85,1.11-7.5,1.66-10.94,1.66c-4.37,0-7.8-0.82-10.3-2.45
		C716.99,167.1,715.53,164.65,715.1,161.39z M713.71,148.55v-21.42c-9.42,3.32-15.71,6.23-18.88,8.73
		c-3.17,2.49-4.76,5.47-4.76,8.91c0,2.83,0.86,5.08,2.59,6.74c1.72,1.66,4.09,2.49,7.11,2.49c2.03,0,4.22-0.46,6.56-1.39
		C708.67,151.69,711.13,150.34,713.71,148.55z M793.81,171.18l-41.09-86.99h18.93l26.32,56.61l24.57-56.61h18.56l-39.34,86.99
		H793.81z M925.04,160.47c-5.66,3.63-11.5,6.36-17.5,8.17c-6,1.81-12.21,2.72-18.61,2.72c-13.48,0-24.24-4.17-32.28-12.51
		c-8.03-8.34-12.05-19.47-12.05-33.38c0-12.74,3.86-23.09,11.59-31.03c7.72-7.94,17.81-11.91,30.24-11.91
		c12.31,0,22.07,4.03,29.28,12.1c7.2,8.07,10.8,18.96,10.8,32.69v2.49h-63.9c0.49,8.07,3.14,14.36,7.94,18.88
		c4.8,4.53,11.24,6.79,19.3,6.79c5.42,0,11.07-1,16.95-3c5.88-2,11.96-5.03,18.24-9.1V160.47z M862.61,117.71h45.16
		c-0.55-6.22-2.8-11.2-6.74-14.96c-3.94-3.76-8.86-5.63-14.77-5.63c-6.53,0-11.79,1.74-15.79,5.22
		C866.46,105.81,863.84,110.94,862.61,117.71z M989.5,166.84c-2.65,1.48-5.5,2.57-8.54,3.28c-3.05,0.71-6.32,1.06-9.83,1.06
		c-9.6,0-16.36-2.28-20.27-6.83c-3.91-4.55-5.86-12.87-5.86-24.93V98.96h-14.5V97.3l29.83-32.97h1.94v19.86h26.69v14.77h-26.69
		v39.15c0,7.08,0.88,11.65,2.63,13.72c1.75,2.06,5.03,3.09,9.83,3.09c2.59,0,5.11-0.34,7.57-1.02c2.46-0.68,4.86-1.72,7.2-3.14
		V166.84z"/>
</g>
</svg>
