<?xml version="1.0" encoding="utf-8"?>
<!-- Generator: Adobe Illustrator 24.0.1, SVG Export Plug-In . SVG Version: 6.00 Build 0)  -->
<svg version="1.1" id="Layer_1" xmlns="http://www.w3.org/2000/svg" xmlns:xlink="http://www.w3.org/1999/xlink" x="0px" y="0px"
	 viewBox="0 0 30 30" style="enable-background:new 0 0 30 30;" xml:space="preserve">
<style type="text/css">
	.st0{fill:#FFFFFF;}
</style>
<g>
	<path class="st0" d="M3.14,10.27C4.31,9.01,5.7,7.87,7.4,7.17c0.84-0.34,1.76-0.58,2.7-0.63c0.94-0.05,1.9,0.07,2.79,0.35
		c0.45,0.14,0.9,0.31,1.34,0.57c0.44,0.25,0.88,0.59,1.23,1.04c0.36,0.45,0.6,1.03,0.68,1.6c0.08,0.57,0.02,1.12-0.1,1.61
		c-0.25,0.99-0.72,1.8-1.2,2.54c-0.05,0.08-0.09,0.16-0.11,0.25c-0.02,0.09-0.02,0.18-0.01,0.28c0.03,0.19,0.13,0.39,0.29,0.52
		c0.08,0.06,0.16,0.12,0.27,0.15l0.04,0.02l0.07,0.01l0.13,0.03c0.09,0.02,0.17,0.04,0.27,0.05c0.38,0.06,0.79,0.1,1.21,0.15
		c0.84,0.09,1.7,0.21,2.54,0.38c0.85,0.16,1.68,0.42,2.5,0.69c0.81,0.3,1.6,0.62,2.36,1.02c1.45,0.73,2.8,1.61,4.07,2.59
		c0.67-1.67,1.04-3.48,1.04-5.39c0-8.01-6.49-14.5-14.49-14.5C7.3,0.5,1.02,6.49,0.53,14.06C1.21,12.69,2.1,11.43,3.14,10.27z"/>
	<path class="st0" d="M24.06,18.55c-0.78-0.27-1.57-0.5-2.36-0.69c-0.8-0.18-1.59-0.34-2.4-0.42c-0.81-0.1-1.61-0.14-2.45-0.17
		c-0.42-0.02-0.84-0.03-1.29-0.08c-0.11-0.01-0.23-0.03-0.35-0.04l-0.18-0.03l-0.09-0.01l-0.11-0.03c-0.31-0.07-0.6-0.2-0.86-0.38
		c-0.53-0.36-0.89-0.93-1.03-1.55c-0.07-0.31-0.08-0.64-0.02-0.97c0.06-0.32,0.18-0.64,0.35-0.91c0.41-0.66,0.75-1.35,0.9-1.99
		c0.08-0.32,0.1-0.62,0.06-0.88c-0.04-0.26-0.13-0.48-0.29-0.69C13.63,9.27,13,8.93,12.31,8.69c-0.7-0.24-1.42-0.36-2.16-0.36
		c-0.73,0.01-1.48,0.12-2.2,0.36c-1.46,0.46-2.84,1.32-4.11,2.34c-0.63,0.51-1.25,1.06-1.83,1.65C1.5,13.19,1,13.73,0.52,14.29
		C0.51,14.52,0.5,14.76,0.5,15c0,8.01,6.49,14.5,14.49,14.5c6.08,0,11.29-3.75,13.44-9.07C26.99,19.72,25.54,19.07,24.06,18.55z
		 M13.66,22.25c-0.08,0.35-0.14,0.69-0.25,1.01c-0.13,0.32-0.27,0.63-0.43,0.92c-0.05-0.34-0.08-0.67-0.1-0.98l-0.17-0.92
		c-0.09-0.29-0.17-0.58-0.26-0.85c-0.13-0.27-0.2-0.54-0.35-0.8c-0.51-1.05-1.24-2.05-1.88-3.22c-0.65-1.16-1.16-2.51-1.28-3.9
		c-0.13-1.38,0.09-2.76,0.59-4c0.29,1.32,0.51,2.55,0.89,3.69c0.37,1.15,0.89,2.19,1.49,3.28c0.58,1.08,1.28,2.26,1.62,3.65
		c0.05,0.17,0.08,0.35,0.1,0.52c0.02,0.18,0.05,0.35,0.06,0.53C13.71,21.54,13.69,21.9,13.66,22.25z"/>
</g>
</svg>
