<?xml version="1.0" encoding="utf-8"?>
<!-- Generator: Adobe Illustrator 24.0.1, SVG Export Plug-In . SVG Version: 6.00 Build 0)  -->
<svg version="1.1" id="Layer_1" xmlns="http://www.w3.org/2000/svg" xmlns:xlink="http://www.w3.org/1999/xlink" x="0px" y="0px"
	 viewBox="0 0 300 300" style="enable-background:new 0 0 300 300;" xml:space="preserve">
<style type="text/css">
	.st0{fill-rule:evenodd;clip-rule:evenodd;fill:#FFFFFF;}
	.st1{fill:#F48120;}
</style>
<path id="XMLID_8_" class="st0" d="M245.24,89.69c-0.7,0-2.8-1.66-3.76-2.01c0,0-2.86-2.27-4.13-3.5c-1.27-1.22-2.88-3.71-4.8-4.54
	c-1.92-0.83-2.62-0.44-3.76-0.22c-1.14,0.22-2.4-0.26-4.19,0.44c-1.79,0.7-2.71,3.28-3.06,3.76c-0.35,0.48-0.31,0.31-1.62,1
	c-1.31,0.7-3.84,3.19-3.84,3.19s-1.4-0.44-5.42-2.53c-4.02-2.1-15.81-4.19-25.25-3.93c-9.43,0.26-15.55,1.66-16.6,1.66
	c-1.05,0-4.15-0.7-6.46-0.79c-2.32-0.09-2.58-0.13-5.37,0.92c-2.8,1.05-20.89,2.56-28.84,2.91c-11.79,0.52-22.77-3.69-34.33-3.39
	c-3.32,0.09-6.29-1.49-10.48-1.49c-4.19,0-11.71,0.44-13.8,2.1c-2.1,1.66-2.97,2.62-4.19,4.37c-1.22,1.75-0.44,1.05-1.83,3.76
	c-1.4,2.71-1.52,13.32-0.56,17.25c0.96,3.93,1.66,20.53,1.48,22.45c-0.17,1.92,0,3.84-0.52,6.64c-0.34,1.81-0.53,2.37-0.96,4.02l0,0
	c-4.15,7.69-6.6,9.09-10.27,11.53c-3.67,2.45-5.59,6.29-8.74,11.53c-3.14,5.24-3.14,15.55-3.49,14.5c-0.35-1.05,2.8-7.51,6.81-10.13
	c4.02-2.62,6.46-1.57,9.26-6.46c2.8-4.89,1.75-7.34,4.02-11.01c0.34-0.55,0.68-1.04,1.01-1.49c0.14,1.98,0.77,2.9,0.6,3.85
	c-0.26,1.48,0.61,3.93,0.61,3.93s-0.09,1.57-1.49,3.67c-1.4,2.1-0.87,1.05-2.27,3.84c-1.4,2.8-0.17,2.97,1.4,6.81
	c1.57,3.84,1.05,5.42,1.75,11.01c0.7,5.59,1.22,21.66,0.79,22.19c-0.44,0.52-0.09,0.79-0.17,1.92c-0.09,1.14,0.61,1.49,1.57,2.45
	c0.96,0.96-0.09,1.83,0,3.58c0.09,1.75,1.22,1.66,2.71,3.06c1.48,1.4,4.63,0.79,5.94,1.31c1.31,0.52,2.1,0.17,3.06-0.09
	c0.96-0.26,0.61-0.52,1.14-0.61c0.52-0.09,1.57-0.79,1.4-2.1c-0.17-1.31-1.92-2.45-3.32-4.28c-1.4-1.83-1.14-1.49-2.18-2.88
	c-1.05-1.4-0.87-7.77-1.4-12.32c-0.52-4.54-1.22-6.46-1.22-10.83c0-4.37,1.75-7.51,2.8-11.18c1.05-3.67,6.55-15.72,6.55-15.72
	s0.26,0.79,2.8,4.19c2.53,3.41,4.28,3.98,4.28,3.98s-0.26,1.35-1.35,2.75c-1.09,1.4-1.44,1.09-0.87,3.93
	c0.57,2.84,2.62,4.11,5.77,10.48c3.14,6.38,10.83,22.97,10.31,24.55c-0.52,1.57,0.35,1.57,0.96,2.88c0.61,1.31,0.44,0.26,1.31,0.7
	c0.87,0.44,0.87,0.79,1.4,2.01c0.52,1.22,1.31,1.4,4.02,2.36c2.71,0.96,6.2,0.87,8.39,0.26c2.18-0.61,1.66-0.79,1.66-0.79
	s2.53-0.44,1.92-1.49c-0.61-1.05-2.88-2.1-3.32-2.27c-0.44-0.17-0.79-1.05-2.53-2.36c-1.75-1.31-2.45-0.44-3.67-2.18
	c-1.22-1.75-2.27-3.76-4.19-7.43c-1.92-3.67-5.59-13.02-5.15-18.69c0.44-5.68,0.44-11.57,0.44-11.57s0.09,0.74,0.66,0.87
	c0.57,0.13,1.09,0.31,1.49-0.7c0.39-1-0.09-3.14-0.09-3.14s0.44-0.96,1.14-1.66c0.7-0.7,1.31-1.14,5.24-2.36
	c3.93-1.22,3.76-2.1,5.59-2.53c1.83-0.44,3.06,3.32,5.5,3.58c2.45,0.26,2.45-0.26,4.8,0.35c2.36,0.61,12.4,1.31,29.18,0.79
	c7.98-0.25,23.14-2.78,23.24-2.45c0.87,2.97-0.17,5.55,0.74,10.18c0.92,4.63,0.74,8.56,0.61,10.74c-0.13,2.18,0.96,1.88,1.7,4.67
	c0.74,2.8,0.92,9.22,0.04,12.14c-0.87,2.93-0.83,10.13-1.27,10.79c-0.44,0.66-0.31,1.44-0.09,2.27c0.22,0.83,1.4,0.22,1.88-0.13
	c0.48-0.35,0.31-0.13,0.61,0.13c0.31,0.26,0.13,1.49-0.31,2.4c-0.44,0.92-0.74,2.62-0.48,3.32c0.26,0.7,8.91,2.31,10.74,1.48
	c1.83-0.83,1-1.48,1-1.48s1.53-0.31,2.14-0.79c0.37-0.29-0.31-1.09-1.04-2.02c2.69,0.69,7.67,1.39,9.01,0.79
	c1.83-0.83,1.01-1.48,1.01-1.48s1.53-0.31,2.14-0.79c0.61-0.48-1.66-2.36-2.23-3.89c-0.92-2.48,0.19-1.48-2.88-5.07
	c0,0-0.96-1.49-0.61-4.19c0.35-2.71-4.3-7.49,0.43-16.38c0.43-0.81,1.66-1.48,1.57-6.46c-0.03-1.52-0.52-4.77-0.8-8.09
	c1.48,0.24,4.02,0.32,5.94-1.43c2.88-2.62,10.13-15.81,12.23-20.44c2.1-4.63,2.84-10.53,2.84-10.53s0.31-0.61,0.79-1.35
	c0.48-0.74,4.5-5.85,4.5-5.85s0.22-0.09,0.48-0.26c0.26-0.18,1.62,0.17,3.15,0.22c1.53,0.04,2.53-1.35,2.84-1.88
	c0.31-0.52,0.66-0.39,1.88-0.39c1.22,0,1.48,0.17,1.88-1.7c0.39-1.88-0.66-4.46-0.66-4.46s0.57-1.4,0.7-3.36
	c0.13-1.97,0.44-2.58,0.79-4.8c0.35-2.23,0.74-6.68,0.83-7.6c0.09-0.92,0.96-2.14,1.48-3.41c0.52-1.27,0.24-2.54,0.24-2.54
	s-0.01-0.01,0.07-0.27c0.08-0.26,0.1-0.74,0.04-0.95c-0.05-0.21,0.24-0.78,0.24-0.78s0.7-0.66,1.66-1c0.96-0.35,3.89,0.61,5.68,0.22
	c1.79-0.39,5.94-2.58,7.73-4.85c1.79-2.27,1.7-3.58,0.44-4.8c-1.27-1.22-5.24-1.7-8.56-1C246.51,87.51,245.94,89.69,245.24,89.69
	L245.24,89.69z M193.43,212.48c-0.24-1.01-0.12-1.05-2.49-3.81c0,0-0.96-1.49-0.61-4.19c0.35-2.71-4.3-7.49,0.43-16.38
	c0.4-0.76,1.51-1.4,1.57-5.6c0.19,0.38,0.37,0.85,0.54,1.49c0.74,2.8,0.92,9.22,0.04,12.14c-0.87,2.93-0.83,10.13-1.27,10.79
	c-0.44,0.66-0.31,1.44-0.09,2.27c0.22,0.83,1.4,0.22,1.88-0.13c0.48-0.35,0.31-0.13,0.61,0.13c0.31,0.26,0.13,1.49-0.31,2.4
	C193.63,211.84,193.52,212.15,193.43,212.48z"/>
<path class="st1" d="M291,150C291,72.13,227.87,9,150,9S9,72.13,9,150s63.13,141,141,141c40.88,0,77.69-17.4,103.45-45.2
	C272.63,245,288,229.15,288,209.77c0-5.83-1.4-11.34-3.87-16.22C288.58,179.83,291,165.2,291,150z M55.95,244.05
	C30.83,218.92,17,185.53,17,150c0-35.53,13.83-68.92,38.95-94.05C81.08,30.83,114.47,17,150,17s68.92,13.83,94.05,38.95
	C269.17,81.08,283,114.47,283,150c0,12.06-1.6,23.87-4.69,35.2c-6.59-7.07-15.98-11.51-26.38-11.51
	c-19.89,0-36.07,16.18-36.07,36.07c0,16.91,11.7,31.14,27.43,35.02C218.26,269.43,185.17,283,150,283
	C114.47,283,81.08,269.17,55.95,244.05z M232.37,212.26l1.65-1.65l11.25,11.25l24.49-24.49l1.65,1.65l-26.13,26.13L232.37,212.26z"
	/>
</svg>
