<?xml version="1.0" encoding="utf-8"?>
<!-- Generator: Adobe Illustrator 24.0.1, SVG Export Plug-In . SVG Version: 6.00 Build 0)  -->
<svg version="1.1" id="Layer_1" xmlns="http://www.w3.org/2000/svg" xmlns:xlink="http://www.w3.org/1999/xlink" x="0px" y="0px"
	 viewBox="0 0 300 300" style="enable-background:new 0 0 300 300;" xml:space="preserve">
<style type="text/css">
	.st0{fill:#F48120;}
	.st1{fill-rule:evenodd;clip-rule:evenodd;fill:#FFFFFF;}
</style>
<path class="st0" d="M150,17c35.53,0,68.92,13.83,94.05,38.95S283,114.47,283,150s-13.83,68.92-38.95,94.05S185.53,283,150,283
	s-68.92-13.83-94.05-38.95S17,185.53,17,150s13.83-68.92,38.95-94.05S114.47,17,150,17 M150,9C72.13,9,9,72.13,9,150
	s63.13,141,141,141s141-63.13,141-141S227.87,9,150,9L150,9z"/>
<path id="XMLID_16_" class="st1" d="M207.99,162.19c-0.38-0.08-1.2,0-2.02-0.41c0,0-0.9,0.6-1.65,1.2c-0.75,0.6-2.02,0.68-3.67,0.3
	c-1.65-0.37-1.57,2.4-2.32,3.45c-0.75,1.05-0.3,1.95,0.3,5.02c0.6,3.07,2.17,9.3,2.4,11.4s-0.82,5.77-0.45,9.45
	c0.38,3.67,4.8,13.04,5.47,15.22c0.67,2.17,2.1,2.32,3.15,3.67c1.05,1.35,0.53,2.1,0.6,2.55c0.07,0.45,0.37,0.9,1.95,2.85
	c1.57,1.95,2.77,3.15,3.75,4.8c0.97,1.65-1.57,0.9-1.95,0.97c-0.38,0.08,0.45,2.1-3.07,1.72c-3.52-0.38-6-1.8-6.9-2.77
	c-0.9-0.97-2.77-1.65-3.15-3.07c-0.37-1.42-0.52-2.7-0.9-3.45c-0.38-0.75-1.27-0.6-2.02-0.75c-0.75-0.15-0.23-1.27,0.08-2.55
	c0.3-1.27,0.3-1.72-0.23-4.42c-0.52-2.7-4.5-16.12-5.1-17.54c-0.6-1.42-1.42-2.1-2.55-4.65c-1.12-2.55-0.3-3.15-2.32-6.45
	c-2.02-3.3-5.7-12.9-6.07-14.09c-0.38-1.2-3-3.37-3-3.37s-0.38,0.45-0.82,2.55c-0.45,2.1-0.38,5.32-0.68,7.87
	c-0.3,2.55-0.15,3.9-2.25,6.07c-2.1,2.17-1.95,2.17-2.1,5.92c-0.15,3.75,0.67,10.27,0.82,11.17c0.15,0.9,0,1.12,0.75,2.1
	c0.75,0.97,1.27,2.25,1.27,2.25s0.3,0.37,2.17,1.95c1.87,1.57,4.72,3.9,5.47,4.8c0.75,0.9-0.08,1.27-1.65,1.95
	c-1.57,0.67-6.22,1.57-8.92,0.6c-2.7-0.97-1.2-1.72-1.95-2.17c-0.75-0.45-2.32,0.08-2.17-2.25c0.15-2.32-1.24-2.96-1.24-2.96
	s-0.04-0.49-0.23-0.86c-0.19-0.37-0.79,0.08-1.39-0.08c-0.6-0.15-0.64-1.42-0.6-2.44c0.04-1.01-0.41-0.45-0.97-1.09
	c-0.56-0.64,0.15-0.6,0.3-1.39c0.15-0.79,0.64-1.76,1.72-4.05c1.09-2.29,1.42-11.73,1.35-14.28c-0.08-2.55-0.82-3-1.05-6.67
	c-0.23-3.67-0.3-13.57-0.3-13.57s-1.27-0.82-4.8-0.82c-3.52,0-5.7,1.5-10.87,3.15c-5.17,1.65-4.35,0.67-6.52,1.8
	c-2.17,1.12-11.02,1.87-15.52,2.55c-4.5,0.67-7.42,0.08-13.2-1.57c-5.77-1.65-8.47-3.45-9.6-3.75c-1.12-0.3-3.3,1.42-5.17,2.32
	c-1.87,0.9-9,0.9-9,0.9s0.15,2.7-0.23,5.25c-0.38,2.55-0.97,3.97-0.45,7.87c0.53,3.9-0.15,6,1.72,11.32
	c1.87,5.32,7.72,11.77,8.55,12.67c0.82,0.9,0.75,2.02,1.05,2.4c0.3,0.37,1.2,1.12,2.02,2.02c0.82,0.9,0.6,1.05,1.43,2.77
	c0.82,1.72,1.87,1.42,3.6,2.55c1.72,1.12,2.62,2.25,3.37,3.52c0.75,1.27-0.53,0.23,0.08,1.42c0.6,1.2-1.12,1.12-3.22,1.57
	c-2.1,0.45-6.52,0.15-7.5-0.3c-0.97-0.45-2.7-1.87-3.3-2.85c-0.6-0.97-2.62-0.52-3.52-0.3c-0.9,0.23-1.12-0.97-1.2-2.77
	c-0.07-1.8-0.15-1.05-0.82-2.85c-0.68-1.8,0-2.55-0.08-3.37c-0.08-0.82-2.47-4.8-4.65-9.07c-2.17-4.27-13.64-20.99-13.72-22.94
	c-0.08-1.95,0.97-6.52,0.97-6.52s-0.68,0.75-2.32,3.75c-1.65,3-2.62,5.29-3.56,6.78c-0.94,1.5-2.55,5.89-2.62,6.37
	c-0.08,0.49-0.3,1.65-1.24,3.26c-0.94,1.61-2.25,8.06-2.47,12.48c-0.23,4.42,2.02,12.75,2.77,15.29c0.75,2.55,2.02,3.22,4.2,5.62
	c2.17,2.4,4.42,2.92,4.87,5.32c0.45,2.4-0.97,1.27-0.97,1.27s-0.22,0.45-0.52,1.5c-0.3,1.05-3.67,1.12-5.25,0.82
	c-1.57-0.3-7.12-0.75-8.32-2.32c-1.2-1.57-1.24-3.67-1.05-4.46c0.19-0.79-0.71-2.66-1.31-3.75c-0.6-1.09-1.76,0.11-2.59-0.08
	c-0.82-0.19-1.39-0.6-0.97-2.21c0.41-1.61,0.97-1.87,1.5-2.4c0.52-0.53,0.45-0.34,0.6-1.5c0.15-1.16,0-8.88,0-19.23
	c0-10.35-2.92-14.92-1.87-18.97c1.05-4.05,4.2-12.59,5.32-16.94c1.12-4.35,1.72-10.35-0.97-21.29c-2.7-10.95-5.29-30.33-5.85-30.66
	c-0.56-0.34-0.49,0.11-0.56,2.51c-0.08,2.4,1.35,13.72,1.2,21.52c-0.15,7.8-1.65,26.91-1.65,26.91s1.8,3.3,2.55,8.55
	c0.75,5.25-3.6,10.8-4.05,19.49c-0.41,7.88-0.69,16.26-0.18,18.65c-1.05-2.48-5.04-11.86-4.91-20.45c0.15-10.5-0.75-15.44,1.8-20.09
	c2.55-4.65,1.05-4.2,1.95-9.15c0.9-4.95,2.1-15.89,1.35-23.54c-0.75-7.65-2.7-19.79-1.8-31.19c0.9-11.4,4.12-11.85,5.47-12.9
	c1.35-1.05,4.27-3.82,9.82-4.95c5.55-1.12,10.27-0.15,11.77,0.08c1.5,0.22,3.45-0.15,7.95-1.27c4.5-1.12,10.5,0.6,19.42,0.75
	c8.92,0.15,17.92-2.7,24.37-3.37c6.45-0.68,21.44,1.05,23.09,1.05c1.65,0,3.6-0.9,7.87-0.75c4.27,0.15,7.87,1.65,14.99,4.05
	c7.12,2.4,25.04,6.52,30.96,8.92c5.92,2.4,11.55,8.85,15.22,13.19c3.67,4.35,3.45,8.77,4.95,14.17c1.5,5.4,1.5,6.45,6,20.39
	c4.5,13.94,6.52,17.47,7.8,22.64c1.27,5.17,4.76,8.81,4.76,8.81s1.39,0.9,1.72,1.09c0.34,0.19,0.6-0.11,2.14-0.6
	c1.54-0.49,1.95,0.15,3.04,0.56c1.09,0.41,1.24,0.08,2.47-0.15s2.32-0.11,2.7-0.11c0.37,0,0.15,1.2-1.43,2.44
	c-1.57,1.24-3.45,1.35-3.45,1.35s-0.38,1.24-0.34,1.76c0.04,0.52,0.26,1.72,1.24,4.31c0.97,2.59,1.95,6.67,1.95,8.1
	c0,1.42-0.3,1.35-1.16,3c-0.86,1.65-1.76,2.1-1.76,2.1s-0.08,0.3,0.04,1.27c0.11,0.97,0.49,3.15,0.49,7.16s0.71,13.49,0.71,13.49
	s0,0.19,0.56,1.31c0.56,1.12,0.49,3.26,0.08,4.87c-0.41,1.61-1.84,1.05-2.4,1.2c-0.56,0.15-1.8,1.09-2.4,0.75
	c-0.6-0.34-1.5-0.41-2.17-0.56c-0.67-0.15-1.99,0.53-3.07,0.08c-1.09-0.45-3.07-1.5-4.42-3.64c-1.35-2.14-0.45-2.06-0.6-2.77
	c-0.15-0.71-6.22-6.11-8.7-8.62c-2.47-2.51-7.31-11.55-7.53-15.44c-0.22-3.9-0.52-4.65-1.5-7.87c-0.97-3.22-6.52-15.67-6.75-15.93
	c-0.23-0.26-1.31-1.24-2.92-2.1C207.69,162.52,208.36,162.26,207.99,162.19z"/>
<path class="st0" d="M316.15,342.13c-1.75-0.69-4.22-1.02-7.93-0.71c-2.79,0.23-5.3-0.75-7.3-2.3c-2.4-1.85-4.07-4.53-4.6-6.86
	l-0.23-1l11.38,0.09c1.31,0.01,2.21-0.69,2.69-1.67c0.25-0.51,0.39-1.1,0.42-1.7c0.03-0.61-0.06-1.24-0.26-1.83
	c-0.44-1.3-1.47-2.38-3.09-2.59l-10.68-0.08c-2.17-0.02-4.25-0.96-5.85-2.59c-1.51-1.54-2.61-3.7-2.96-6.26l-0.13-0.92
	c6.47,0.01,12.95,0.02,19.42,0.02c2.12,0.1,4.05,0.66,5.76,1.55c2.56,1.34,4.58,3.41,5.94,5.8c1.36,2.4,2.05,5.11,1.92,7.73
	c-0.07,1.43-0.38,2.82-0.96,4.12c2.42,1.93,4.15,3.92,5.31,5.9c1.62,2.76,2.15,5.51,1.91,8.04c-0.24,2.53-1.25,4.84-2.69,6.73
	c-1.64,2.16-5.15,4.74-7.85,5.25c2.22-1.59,3.79-3.34,4.5-6.94c0.42-2.12,0.37-4.68-1.08-6.79c-0.02-0.02-0.05-0.07-0.11-0.15
	C318.86,343.83,317.83,342.79,316.15,342.13 M308.09,339.79c3.97-0.33,6.68,0.04,8.66,0.82c2.04,0.81,3.28,2.04,4.26,3.39
	c0.02,0.03,0.07,0.09,0.13,0.18c1.75,2.55,1.83,5.56,1.34,8.03c-0.09,0.45-0.2,0.89-0.33,1.31c0.27-0.29,0.53-0.6,0.77-0.92
	c1.27-1.66,2.15-3.68,2.36-5.89c0.21-2.21-0.26-4.62-1.69-7.06c-1.14-1.95-2.9-3.92-5.42-5.84l-0.55-0.42l0.32-0.61
	c0.65-1.25,1-2.64,1.07-4.06c0.11-2.31-0.5-4.72-1.71-6.85c-1.21-2.13-3.01-3.98-5.28-5.17c-1.5-0.78-3.2-1.28-5.08-1.37
	l-17.43-0.02c0.41,1.79,1.24,3.3,2.34,4.41c1.3,1.33,2.97,2.09,4.7,2.11l10.76,0.08l0.1,0c2.35,0.29,3.82,1.84,4.45,3.7
	c0.27,0.78,0.38,1.61,0.34,2.43c-0.04,0.82-0.23,1.63-0.58,2.34c-0.73,1.52-2.13,2.61-4.17,2.59l-9.24-0.08
	c0.64,1.73,1.95,3.57,3.7,4.92C303.62,339.14,305.75,339.99,308.09,339.79z"/>
</svg>
